Patient4_TMGait_0pt3_01_right_21_EMG.mot
version=1
nRows=13
nColumns=33
inDegrees=no
endheader
time	1LAddLong	2LGlutMax	3LGlutMed	4LIliopsoas	5LSemiMemb	6LBicFemLong	7LRecFem	8LVastMed	9LVastLat	10LGasMed	11LTibAnt	12lTibPost	13LPeroneusLong	14LSol	15LExtDigLong	16LFlexDigLong	17RAddLong	18RGlutMax	19RGlutMed	20RIliopsoas	21RSemiMemb	22RBicFemLong	23RRecFem	24RVastMed	25RVastLat	26RGasMed	27RTibAnt	28RTibPost	29RPeroneusLong	30RSol	31RExtDigLong	32RFlexDigLong
38.39	-0.004883	0.000305	-0.066681	-0.013733	0.005646	0.047302	0.061798	0.023346	-0.005798	0.019531	-0.00412	0.003357	0.046997	-0.083923	-0.018158	0.015564	-0.08194	0.007172	0.36331	-0.18799	0.020905	-0.00412	0.086823	-0.004578	-0.003967	-0.007935	0.79269	0.000153	-0.18768	-0.097656	-0.001526	-0.032196
38.391	-0.002747	0.048065	0.14267	0.014496	0.00824	-0.13397	0.076447	0.019531	0.064087	0.041962	0.032806	-0.022278	0.029602	-0.005341	-0.014496	0.016327	-0.076904	0.01297	0.25986	-0.084686	0.039368	0.008545	0.11932	0.062408	0.018005	-0.011902	0.26886	0.003052	-0.21255	-0.042419	-0.003357	-0.027161
38.392	-0.006104	0.023499	0.11505	0.005188	-0.014038	-0.10239	0.15762	0.013885	0.058899	0.049133	-0.046082	-0.014038	-0.019226	-0.004883	-0.021667	0.008545	-0.053558	-0.051575	0.071869	0.036926	0.052338	0.035858	0.0737	0.040436	0.008698	0.000153	-0.080872	0.000916	-0.072174	-0.029755	-0.005646	-0.029449
38.393	-0.011597	-0.011902	-0.037537	0.006714	-0.002289	-0.24674	0.11948	-0.009766	0.061798	0.040588	-0.022278	0.007629	-0.014343	-0.08255	-0.010681	0.00824	-0.034637	-0.057526	-0.041962	0.074005	0.063019	0.046387	0.071869	0.047913	0.024414	0	-0.70496	0.001373	0.025482	-0.17441	-0.001526	-0.026245
38.394	-0.005188	0.028687	-0.015106	0.012054	0.011597	-0.33783	0.016479	-0.006866	0.092926	0.064087	0.001984	0.004883	0.012054	-0.056915	-0.005035	0.001526	-0.018768	-0.0177	-0.07431	0.058136	0.073853	0.075226	0.090332	0.0737	0.026093	-0.001678	-0.60272	0.000153	0.004883	-0.25528	-0.00351	-0.027771
38.395	-0.007935	0.083466	-0.018921	0.003204	0.014801	-0.18372	-0.046539	0.023193	0.15778	0.070648	0.002136	0.005798	-0.035248	-0.14633	-0.013428	-0.015564	0.017395	-0.003204	0.00351	0.092468	0.088806	0.041656	0.076752	0.033875	0.03067	0.002594	-0.33463	0.006409	0.082855	-0.14511	-0.000153	-0.022583
38.396	0.004883	0.14893	0.17441	0.001526	0.011749	0.090027	-0.016785	0.009155	0.10605	0.04837	-0.006561	0.008698	-0.16815	0.11978	0.022583	0.010529	0.037231	0.011444	0.1384	0.001984	0.079651	0.022888	0.075836	0.012512	0.012512	0.005493	-0.076294	0.002899	0.18799	-0.049744	-0.00412	-0.028076
38.397	0.00946	0.1831	0.16022	0.001984	0.005035	0.30243	0.001068	0.014343	0.075531	0.064697	-0.012054	0.001526	-0.086212	0.15137	0.042877	0.001068	0.068359	0.06546	0.24918	-0.092621	0.056305	-0.012512	0.14832	-0.011444	0.00824	0.009918	0.16312	-0.000305	0.20493	-0.097656	-0.002899	-0.021362
38.398	0.006409	0.14587	0.15121	-0.033875	-0.004883	0.4097	0.024719	0.022278	0.053558	0.11566	-0.0177	-0.008087	0.2771	0.14435	0.035706	0.015106	0.073853	0.01297	0.069885	-0.016174	0.04364	0.000305	0.15823	0	0.008545	-0.001221	0.22217	0.007629	0.10208	0.026398	-0.001373	-0.029297
38.399	0.002747	0.12634	0.10971	-0.019073	-0.001678	0.55893	0.036621	0.031586	-0.005951	0.15381	-0.00412	-0.005646	0.28137	0.10452	0.021515	0.006409	0.064392	0.00946	-0.19424	0.057983	0.029755	-0.014648	0.15976	0.000458	-0.00351	-0.005951	-0.11673	-0.001068	0.12161	0.22995	-0.003967	-0.027161
38.4	-0.003357	0.16998	0.054321	0.020142	-0.004883	0.46631	0.04303	0.027313	-0.03006	0.16754	-0.002289	-0.012665	-0.018311	0.14099	0.029602	0.008392	0.066528	-0.006561	-0.19974	0.017242	0.018616	-0.036926	0.15991	-0.002899	-0.001984	-0.005951	-0.50873	0.00061	0.18814	0.26535	0.007019	-0.027008
38.401	-0.002899	0.21774	0.10468	0.044098	-0.001678	0.35797	0.097198	0.014801	-0.05661	0.10361	0.01236	-0.009613	-0.18387	0.075073	0.031128	0.007629	0.090485	-0.006256	-0.032806	0.07782	0.013428	-0.031281	0.12299	0.035095	0.021057	0.004272	-0.69076	0.000305	0.16159	0.19562	-0.000763	-0.022278
38.402	-0.028381	0.25665	0.11704	0.0177	-0.011902	0.041962	0.15869	0.00412	-0.068359	0.029602	0.003052	-0.007172	0.37689	0.066223	0.022583	0.009308	0.043182	0.034332	-0.13092	0.13855	0.025787	-0.029907	0.13138	0.016174	0.010223	0.006256	-0.034485	0.003662	0.1445	0.074005	-0.00061	-0.021057
